<mxfile host="Electron" agent="Mozilla/5.0 (Windows NT 10.0; Win64; x64) AppleWebKit/537.36 (KHTML, like Gecko) draw.io/24.7.17 Chrome/128.0.6613.36 Electron/32.0.1 Safari/537.36" version="24.7.17">
  <diagram name="第 1 页" id="EEZGqxAXVesSuWARZWzm">
    <mxGraphModel dx="1012" dy="608" grid="1" gridSize="10" guides="1" tooltips="1" connect="1" arrows="1" fold="1" page="1" pageScale="1" pageWidth="1169" pageHeight="827" math="0" shadow="0">
      <root>
        <mxCell id="0" />
        <mxCell id="1" parent="0" />
        <mxCell id="H7crxVpiiCztRyh2UyzA-6" style="edgeStyle=orthogonalEdgeStyle;rounded=0;orthogonalLoop=1;jettySize=auto;html=1;exitX=1;exitY=0.5;exitDx=0;exitDy=0;" edge="1" parent="1" source="H7crxVpiiCztRyh2UyzA-1" target="H7crxVpiiCztRyh2UyzA-2">
          <mxGeometry relative="1" as="geometry">
            <Array as="points">
              <mxPoint x="210" y="410" />
              <mxPoint x="210" y="410" />
            </Array>
          </mxGeometry>
        </mxCell>
        <mxCell id="H7crxVpiiCztRyh2UyzA-1" value="&lt;font style=&quot;font-size: 18px;&quot;&gt;&lt;b&gt;IDLE&lt;/b&gt;&lt;/font&gt;" style="ellipse;whiteSpace=wrap;html=1;aspect=fixed;" vertex="1" parent="1">
          <mxGeometry x="70" y="370" width="80" height="80" as="geometry" />
        </mxCell>
        <mxCell id="H7crxVpiiCztRyh2UyzA-11" style="edgeStyle=orthogonalEdgeStyle;rounded=0;orthogonalLoop=1;jettySize=auto;html=1;exitX=1;exitY=0.5;exitDx=0;exitDy=0;entryX=0;entryY=0.5;entryDx=0;entryDy=0;" edge="1" parent="1" source="H7crxVpiiCztRyh2UyzA-2" target="H7crxVpiiCztRyh2UyzA-3">
          <mxGeometry relative="1" as="geometry" />
        </mxCell>
        <mxCell id="H7crxVpiiCztRyh2UyzA-2" value="&lt;font style=&quot;font-size: 18px;&quot;&gt;&lt;b&gt;INFO&lt;/b&gt;&lt;/font&gt;" style="ellipse;whiteSpace=wrap;html=1;aspect=fixed;" vertex="1" parent="1">
          <mxGeometry x="250" y="370" width="80" height="80" as="geometry" />
        </mxCell>
        <mxCell id="H7crxVpiiCztRyh2UyzA-13" value="" style="edgeStyle=orthogonalEdgeStyle;rounded=0;orthogonalLoop=1;jettySize=auto;html=1;" edge="1" parent="1" source="H7crxVpiiCztRyh2UyzA-3" target="H7crxVpiiCztRyh2UyzA-4">
          <mxGeometry relative="1" as="geometry" />
        </mxCell>
        <mxCell id="H7crxVpiiCztRyh2UyzA-3" value="&lt;font style=&quot;font-size: 18px;&quot;&gt;&lt;b&gt;WORK&lt;/b&gt;&lt;/font&gt;" style="ellipse;whiteSpace=wrap;html=1;aspect=fixed;" vertex="1" parent="1">
          <mxGeometry x="420" y="370" width="80" height="80" as="geometry" />
        </mxCell>
        <mxCell id="H7crxVpiiCztRyh2UyzA-15" style="edgeStyle=orthogonalEdgeStyle;rounded=0;orthogonalLoop=1;jettySize=auto;html=1;exitX=1;exitY=0.5;exitDx=0;exitDy=0;entryX=0;entryY=0.5;entryDx=0;entryDy=0;" edge="1" parent="1" source="H7crxVpiiCztRyh2UyzA-4" target="H7crxVpiiCztRyh2UyzA-5">
          <mxGeometry relative="1" as="geometry" />
        </mxCell>
        <mxCell id="H7crxVpiiCztRyh2UyzA-4" value="&lt;font style=&quot;font-size: 18px;&quot;&gt;&lt;span&gt;WAIT&lt;/span&gt;&lt;/font&gt;" style="ellipse;whiteSpace=wrap;html=1;aspect=fixed;fontStyle=1" vertex="1" parent="1">
          <mxGeometry x="584.5" y="370" width="80" height="80" as="geometry" />
        </mxCell>
        <mxCell id="H7crxVpiiCztRyh2UyzA-17" style="edgeStyle=orthogonalEdgeStyle;rounded=0;orthogonalLoop=1;jettySize=auto;html=1;exitX=0.5;exitY=1;exitDx=0;exitDy=0;entryX=0.5;entryY=1;entryDx=0;entryDy=0;" edge="1" parent="1" source="H7crxVpiiCztRyh2UyzA-5" target="H7crxVpiiCztRyh2UyzA-1">
          <mxGeometry relative="1" as="geometry" />
        </mxCell>
        <mxCell id="H7crxVpiiCztRyh2UyzA-5" value="&lt;font style=&quot;font-size: 18px;&quot;&gt;&lt;span&gt;FINISH&lt;/span&gt;&lt;/font&gt;" style="ellipse;whiteSpace=wrap;html=1;aspect=fixed;fontStyle=1" vertex="1" parent="1">
          <mxGeometry x="760" y="370" width="80" height="80" as="geometry" />
        </mxCell>
        <mxCell id="H7crxVpiiCztRyh2UyzA-9" value="外部信号驱动开始进行运算" style="text;html=1;align=center;verticalAlign=middle;whiteSpace=wrap;rounded=0;fontSize=14;" vertex="1" parent="1">
          <mxGeometry x="150" y="370" width="90" height="30" as="geometry" />
        </mxCell>
        <mxCell id="H7crxVpiiCztRyh2UyzA-12" value="直接转移" style="text;html=1;align=center;verticalAlign=middle;whiteSpace=wrap;rounded=0;fontSize=14;" vertex="1" parent="1">
          <mxGeometry x="330" y="370" width="90" height="30" as="geometry" />
        </mxCell>
        <mxCell id="H7crxVpiiCztRyh2UyzA-14" value="计数满：完成数据搬运" style="text;html=1;align=center;verticalAlign=middle;whiteSpace=wrap;rounded=0;fontSize=14;" vertex="1" parent="1">
          <mxGeometry x="500" y="370" width="90" height="30" as="geometry" />
        </mxCell>
        <mxCell id="H7crxVpiiCztRyh2UyzA-16" value="对齐完成，收到信号" style="text;html=1;align=center;verticalAlign=middle;whiteSpace=wrap;rounded=0;fontSize=14;" vertex="1" parent="1">
          <mxGeometry x="664.5" y="370" width="90" height="30" as="geometry" />
        </mxCell>
      </root>
    </mxGraphModel>
  </diagram>
</mxfile>
